<?xml version="1.0" encoding="UTF-8"?>
<svg xmlns="http://www.w3.org/2000/svg" data-name="&amp;apos;I&amp;apos; Maze" version="1.1" viewBox="0 0 200 200"><path stroke-width="0" d="M140.62 65.62V44.37H59.38v21.25h30v68.75h-30v21.25h81.25v-21.25h-30V65.62h30Zm-1.24 70v18.75H60.62v-18.75h30V64.37h-30V45.62h78.75v18.75h-30v71.25h30Z" style="fill: #000080;"/><path stroke-width="0" d="M138.12 63.12V46.87H61.88v16.25h30v73.75h-30v16.25h76.25v-16.25h-30V63.12h30Zm-1.24 75v13.75H63.12v-13.75h30V61.88h-30V48.13h73.75v13.75h-30v76.25h30Z" style="fill: #000080;"/><path stroke-width="0" d="M135.62 60.62V49.37H64.37v11.25h30v78.75h-30v11.25h71.25v-11.25h-30V60.62zm-1.24 80v8.75H65.63v-8.75h30V59.38h-30v-8.75h68.75v8.75h-30v81.25h30Z" style="fill: #000080;"/><path stroke-width="0" d="M133.12 58.12v-6.25H66.87v6.25h30v83.75h-30v6.25h66.25v-6.25h-30V58.12zm-1.24 85v3.75H68.13v-3.75h30V56.88h-30v-3.75h63.75v3.75h-30v86.25h30Z" style="fill: #000080;"/><path stroke-width="0" d="M130.62 55.62 130.62 54.38 69.38 54.38 69.38 55.62 99.38 55.62 99.38 144.38 69.38 144.38 69.38 145.62 130.62 145.62 130.62 144.38 100.63 144.38 100.63 55.62 130.62 55.62z" style="fill: #000080;"/></svg>
